<!DOCTYPE svg PUBLIC "-//W3C//DTD SVG 1.1//EN" "http://www.w3.org/Graphics/SVG/1.1/DTD/svg11.dtd">
<!-- Uploaded to: SVG Repo, www.svgrepo.com, Transformed by: SVG Repo Mixer Tools -->
<svg width="800px" height="800px" viewBox="0 0 1024 1024" class="icon" version="1.1" xmlns="http://www.w3.org/2000/svg" fill="#000000">
<g id="SVGRepo_bgCarrier" stroke-width="0"/>
<g id="SVGRepo_tracerCarrier" stroke-linecap="round" stroke-linejoin="round"/>
<g id="SVGRepo_iconCarrier">
<path d="M768 938.666667H170.666667V170.666667h426.666666l170.666667 170.666666z" fill="#026AC2"/>
<path d="M853.333333 853.333333H256V85.333333h426.666667l170.666666 170.666667z" fill="#90CAF9"/>
<path d="M821.333333 277.333333H661.333333V117.333333z" fill="#E1F5FE"/>
<path d="M499.2 637.866667c0-4.266667 0-8.533333 2.133333-12.8s4.266667-6.4 6.4-10.666667 6.4-4.266667 10.666667-6.4 8.533333-2.133333 12.8-2.133333 10.666667 0 14.933333 2.133333 8.533333 4.266667 10.666667 6.4 4.266667 6.4 6.4 10.666667 2.133333 8.533333 2.133333 12.8 0 8.533333-2.133333 12.8-4.266667 6.4-6.4 10.666666-6.4 4.266667-10.666667 6.4-8.533333 2.133333-14.933333 2.133334-10.666667 0-12.8-2.133334-8.533333-4.266667-10.666667-6.4-4.266667-6.4-6.4-10.666666-2.133333-8.533333-2.133333-12.8z m57.6-66.133334h-49.066667l-8.533333-209.066666h64l-6.4 209.066666z" fill="#000000"/>
</g>
</svg>